<svg width="3221" height="366" xmlns="http://www.w3.org/2000/svg">
    <defs/>
    <defs>
        <clipPath id="a" clipPathUnits="userSpaceOnUse">
            <path d="M-158.92 937.87h2573.97V200.38H-158.92v737.5z"/>
        </clipPath>
    </defs>
    <path fill="none" d="M-1-1h3223v368H-1z"/>
    <g>
        <g clip-path="url(#a)" transform="matrix(1.33333 0 0 -1.33333 0 983.33)">
            <path fill="#fff" fill-rule="evenodd"
                  d="M1793.34 596.48v125.76h-22.57V467.13h102.17l6.62 20.27h-86.22v109.08zm420.56 80.98v44.78h-22.57V611.23h-112.1v111.01h-22.57V611.23h-16.3l-6.87-20.27h23.17V467.13h22.57v123.83h112.1V467.13h22.57v123.83h25.93l-.38 20.27h-25.55v66.23zM1570.01 533.4l-.37.04c.87-4.84 1.95-9.7 3.22-14.57 8.28-25.8 30.1-45.45 56.46-51.75a92.4 92.4 0 0153.93 7 109.21 109.21 0 0151.2 48.55 168.3 168.3 0 0117.7 41.86s4.47 17.13 5.14 28.4c.49 8.14.93 16.3.5 24.5a101.28 101.28 0 01-16.27 53.58 60.96 60.96 0 01-42.92 27.06 40.67 40.67 0 01-15.65.04l-9-21.41 13.9.76a44.17 44.17 0 0038.07-25.25 82.49 82.49 0 008.36-30.6c.39-7.27.3-14.54-.25-21.77-.44-17.04-8.5-42.67-8.5-42.67a117.77 117.77 0 00-22.74-40.2 133.25 133.25 0 00-39.7-28.2 52.2 52.2 0 00-42.97 5.47 62.08 62.08 0 00-25.57 31.23 143.28 143.28 0 00-3.02 12.7s-3.23 25.68-1.85 37.2c1.95 16.34 5.3 31.76 9.49 47.03 15.86 41.54 41.43 73.74 71.6 81.62l13.77 4.1 5.23 14.11h-59.3l.27-.36h-58.25l-6.62-20.26h60.03c-12.33-9.28-35.08-36.2-49.28-76.28a202.83 202.83 0 01-7.97-33.5c-.9-5.53-1.68-16.8-1.68-16.8-.23-4.28-.3-8.55-.22-12.82 0 0-.73-13.03 2.89-28.77m399.88 60.51c-12.78-5.03-28.53-8.43-49.4-11.73l11.8-18.65c35.44 5.9 63.6 10.84 91.5 45.2 0 0 11.86 15.21 15.13 29.19 4.55 19.45 2.47 40.13-7.25 58.12a57.49 57.49 0 01-46.84 26.15 81.68 81.68 0 01-34.1-6.82 74.16 74.16 0 01-36.05-32.04v38.86h-22.57V467.13h22.57v121.1l.7 40.23c9.62 42.2 14.02 52.56 38.44 66.14 9.35 5.26 19.99 7.79 30.7 7.3a33.48 33.48 0 0028.44-16.67c6.77-13.55 7.99-28.9 4.23-43.2-8.75-33.3-47.3-48.07-47.3-48.07m-906.23-5.46c27.47 5.95 52.45 16.49 75.41 49.44 13.07 24 16.38 39.26 3.39 63.3a57.49 57.49 0 01-46.84 26.15 81.68 81.68 0 01-34.1-6.82 74.16 74.16 0 01-33.56-27.94v29.61h-22.57v-255.1h22.57v129.21l114.16-131.17 18.47 10.77-96.93 112.55zm-35.7 52.82c8.48 35.83 13.8 45.71 36.65 58.43 9.35 5.26 20 7.79 30.71 7.3a33.48 33.48 0 0028.44-16.67c9.06-18.15 5.2-25.93-4.87-43.54-20.11-28.76-44.03-36.46-90.93-44.07v38.55zm0-43.54c-1.09 1.2-.82.9.64-.72l-.64.17v.55zm309.3-45.97v170.48h-16.08v-.1h-1.12l-85.8-205.33-6.54-14.57c-7.25-16.82-34.95-18.18-36.95 5.3v214.65h-22.57V507.35c-1.44-23.74 18.81-42.94 42.09-39.9 25.64 1.79 37 22.9 44.09 43.69l1.93 4.5.32.76 59.75 142.97V467.14h20.88v84.67zm220.65 38.97s.9 4.7 1.27 7.08a148.2 148.2 0 01-7.8 80.9 88.14 88.14 0 01-30.26 37.79 117.63 117.63 0 01-46.71 12.13c-12.66.1-25.23-2.09-37.11-6.44a143.98 143.98 0 01-51.78-38.13v38.13h-22.57V467.13h22.57v161.82a93.38 93.38 0 0084.3 78.13 60.66 60.66 0 0057.74-36.47 123.93 123.93 0 008.2-71.41c-1.75-12.57-5.33-24.66-9.95-36.27-6.54-16.46-26.5-41.64-26.5-41.64-4.32-4.75-8.95-9.23-13.9-13.41-3.2-2.5-6.62-4.67-9.94-6.95-8.57-5.9-15.97-8.28-15.97-8.28a114.17 114.17 0 00-63.42-7.4v-20.47a128.51 128.51 0 01101.38 25.5 174.48 174.48 0 0130.54 32.38s12.54 19.32 17.2 29.28c3.14 6.71 5.8 13.65 8.04 20.75 0 0 3.89 14.31 4.67 18.1M172.88 468.03a226.15 226.15 0 00141.87 106.38l46.58-107.29h27.04L338.32 578.9a226.18 226.18 0 0035.1 1.99l.77 19.05a184.8 184.8 0 01-45.12-.37l-54.93 122.68H262.7l-113.84-255.1h-.38 23.98l.4.9zm132.94 126.95c-42.9-11.23-78.85-36.43-104.54-63.33l66.93 149.94 37.6-86.6zm242.73 126.9H490.3l-6.61-20.27h60.03c-12.34-9.28-35.1-36.2-49.29-76.28-11.74-35.97-13.1-70.75-3.75-106.46 8.27-25.8 30.1-45.45 56.45-51.75a92.4 92.4 0 0153.93 7 109.22 109.22 0 0151.2 48.55 168.35 168.35 0 0123.34 94.75 101.28 101.28 0 01-16.27 53.59 60.96 60.96 0 01-42.92 27.06 40.66 40.66 0 01-15.65.04l-9-21.41 13.9.76a44.17 44.17 0 0038.07-25.25 82.5 82.5 0 008.36-30.6c.94-17.36-.86-34.76-5.32-51.56a117.8 117.8 0 00-26.17-53.08 133.28 133.28 0 00-39.7-28.2 52.2 52.2 0 00-42.97 5.47 62.09 62.09 0 00-25.57 31.23c-10.68 37.29-3.52 67.3 4.62 96.93 15.86 41.54 41.43 73.74 71.6 81.62l13.77 4.1 5.23 14.11h-59.3l.27-.36zM402.93 467.12h87.68l6.61 20.27h-86.21v234.84h-22.57v-255.1h14.49zm-273.8 16.83a478.96 478.96 0 0119.32 16.98 110.14 110.14 0 0120.13 32.6c5 13.33 3.23 22.48 2.82 27.43-2.23 12.12-5.1 22.03-12.07 29.32-12.01 12.3-27.74 20.03-45.85 26.01a417.77 417.77 0 00-41.23 14.34c-7.68 3.44-15.45 8.81-18.08 16.66a31.24 31.24 0 003.53 27.05 54.55 54.55 0 0024.26 22.62c30.8 17.63 66.98 17.57 76.5 17.1.43 0 .86.17 1.19.46.28.34.43.76.44 1.2a124.3 124.3 0 003.8 18.26l.12.47c-.08.38-.3.71-.6.93a4.8 4.8 0 01-2.92 1.17c-9.52.58-11.66-.23-28.45-1.85a179.35 179.35 0 01-67.5-23.76 96.54 96.54 0 01-25.81-24.08 54.44 54.44 0 01-10.27-38.4c.7-5.27 11.07-28.76 84.64-54.14 9.63-3.85 16.54-7.87 23.12-12.87a28.33 28.33 0 0011.6-20.25 54.54 54.54 0 00-14.09-42.95 89.58 89.58 0 00-58.98-32.05c-9.32-.38-18.65-.25-27.96.37a127.9 127.9 0 00-14.52 1.94c-2.9.6-5.73 1.43-8.49 2.5-.47.1-3.95-6.6-11-19.52-.3-.73 1.36-1.16 3.05-1.63a222.32 222.32 0 0138.07-6.62l6.04.08a122 122 0 0169.18 20.63M835 556.76v-89.63h22.57v81.23a256.38 256.38 0 0126.72-6.98v19.34a246.2 246.2 0 00-26.72 8.52v153h-22.57V579.21a245.83 245.83 0 00-122.9 142.43v.41h-.13l-.06.2-.07-.2H692.5V467.13h22.57v194.65a256.42 256.42 0 01119.92-105.02M2375.15 539.45c-2.32.07-4.63.22-6.94.44-3.96.3-7.85 1.17-11.57 2.56a13.44 13.44 0 00-8.37 13.4c-.03.32-.12.63-.26.93l-.14.49c.33 2.1.61 4.2.84 6.3.41 1.94.66 3.91.75 5.9a1.81 1.81 0 01-.7 1.34l-.45.22a15.35 15.35 0 00-5.3 4.2c-.2.29-.33.64-.35 1l.01 2.87c.08.26.2.52.33.75l4.5 6.33c.46.84.43 1.85-.06 2.67-.24.17-.48.33-.73.48a20.04 20.04 0 00-5.3 4.2c-.2.29-.33.64-.35 1 .1 1.97.74 3.88 1.83 5.52a15.74 15.74 0 012.7 6.07c.2.92-.3 1.84-1.17 2.18a11.5 11.5 0 00-5.54 5.31 7.72 7.72 0 002.45 6.71c2.36 3.26 4.86 6.41 7.51 9.43a93.93 93.93 0 018.95 13.1c-.25.38-.52.74-.82 1.08a23.81 23.81 0 00-8.37 9.13c-.09.27-.14.55-.16.83a.6.6 0 00.39.63.8.8 0 00.74-.11l3-2.69a21.31 21.31 0 017.08-2.78c.44.21.9.37 1.37.48l.49.15c.64.26 1.08.87 1.13 1.57l.65 10.75a91.79 91.79 0 007.21 24.46 95.18 95.18 0 014.37 7.13c.15.52.05 1.07-.25 1.52a14.18 14.18 0 00-2.85 14.23 18.17 18.17 0 0010.8 12.94 50.35 50.35 0 0018.82 3.75c4.08.27 8.18.1 12.23-.51 1.43.09 2.87-.06 4.26-.44 1.77-.09 3.53-.33 5.27-.7v7.43c-4.35-.01-8.7-.31-13-.91-6.95-.04-13.9-.19-20.84-.47a43.64 43.64 0 00-9.67-.63c-3.1-.67-6.26-.96-9.42-.86-.93-.26-1.88-.46-2.84-.6-2.72.07-5.44-.2-8.1-.81a80.4 80.4 0 01-30.66-9.65 21.87 21.87 0 01-5-29.74 9.05 9.05 0 011.9-2.75l.5-.67a348.1 348.1 0 01-11.35-32.96c-.08-1.16-.3-2.3-.63-3.4-.1-2.05.34-4.08 1.25-5.9.36-.98.78-1.93 1.25-2.85.25-.73.17-1.53-.22-2.19a269.76 269.76 0 00-9.82-17.89 105.1 105.1 0 01-5.86-10.36c-.04-.15-.1-.3-.17-.45a3.68 3.68 0 01-.2-.53c-.09-.36-.08-.73.02-1.09l.27-.44a9.25 9.25 0 015.3-5.52c.8-.54 1.52-1.18 2.16-1.91.2-.3.33-.65.35-1.01-.08-1.8-.63-3.55-1.6-5.08a79.68 79.68 0 01-2.18-3.9 2.48 2.48 0 01.62-2.53c.77-.81 1.6-1.56 2.5-2.24.7-.4 1.34-.9 1.88-1.5a1.7 1.7 0 00-.32-2.31 18.06 18.06 0 01-3.59-4.54 5.98 5.98 0 01-.3-2.98c-.07-.59.06-1.18.36-1.7a10.1 10.1 0 013.92-2.84 6.28 6.28 0 001.5-1.22c.2-.3.32-.65.34-1.02a35.84 35.84 0 00-2.06-7.96 74.82 74.82 0 01-4.35-15.85c.12-2.44.75-4.83 1.85-7a11.4 11.4 0 015.22-2.9c1.97-.8 4.08-1.2 6.2-1.19.94-.23 1.9-.4 2.85-.51 2.7-.28 5.4-.5 8.1-.62l15.86.17a1 1 0 00.65-.4 21.15 21.15 0 011.79-3 37.4 37.4 0 002.7-6.17c.37-.9.55-1.87.51-2.84a1.82 1.82 0 00-.66-1.36l-.46-.23-19.44-11.2-.8-.56-.2-.47-7.32-20.34a528.65 528.65 0 00-6.74-17.09h107.95v67.61a15.84 15.84 0 01-8.53 5.75c-3.33.9-6.83.9-10.15-.01l-12.78-.27"/>
        </g>
    </g>
</svg>