<?xml version="1.0" standalone="no"?>
<!DOCTYPE svg PUBLIC "-//W3C//DTD SVG 20010904//EN"
 "http://www.w3.org/TR/2001/REC-SVG-20010904/DTD/svg10.dtd">
<svg version="1.0" xmlns="http://www.w3.org/2000/svg"
 width="700.000000pt" height="700.000000pt" viewBox="0 0 700.000000 700.000000"
 preserveAspectRatio="xMidYMid meet">
<metadata>
Created by potrace 1.14, written by Peter Selinger 2001-2017
</metadata>
<g transform="translate(0.000000,700.000000) scale(0.100000,-0.100000)"
fill="#000000" stroke="none">
<path d="M6857 6834 c-1 -1 -78 -5 -172 -9 -93 -4 -190 -9 -215 -10 -25 -1
-104 -6 -176 -9 -73 -4 -142 -9 -155 -11 -13 -2 -64 -6 -114 -10 -49 -3 -108
-8 -130 -10 -22 -3 -69 -7 -105 -10 -36 -3 -76 -7 -90 -9 -14 -3 -47 -7 -75
-10 -144 -17 -414 -76 -560 -123 -238 -77 -364 -155 -441 -273 -72 -111 -103
-222 -97 -353 4 -95 30 -178 89 -277 24 -42 45 -87 47 -100 2 -14 -20 -95 -50
-180 -182 -515 -249 -742 -239 -808 3 -20 19 -77 35 -126 l31 -89 -80 -154
c-44 -84 -100 -187 -125 -229 -25 -41 -45 -77 -45 -78 0 -1 -28 -52 -62 -112
-35 -61 -76 -138 -92 -172 -38 -79 -35 -85 96 -213 l98 -96 -21 -49 c-11 -27
-29 -67 -39 -89 -26 -59 -40 -116 -34 -140 3 -12 32 -45 65 -74 32 -29 59 -58
59 -66 0 -8 -19 -38 -43 -67 -59 -74 -74 -114 -68 -189 1 -17 59 -79 73 -79
16 0 78 -63 78 -80 0 -9 -29 -113 -64 -231 -35 -118 -66 -230 -70 -249 -3 -19
-8 -46 -11 -60 -7 -32 -7 -138 -1 -167 22 -102 141 -178 311 -198 77 -9 633
-30 716 -27 10 0 30 -28 56 -81 69 -140 76 -157 76 -199 0 -34 -6 -47 -39 -78
-22 -20 -59 -49 -84 -64 -25 -15 -52 -31 -60 -36 -8 -5 -80 -48 -160 -96 -178
-106 -193 -116 -207 -146 -7 -12 -37 -93 -68 -178 -31 -85 -65 -177 -75 -205
-10 -27 -32 -87 -49 -132 -48 -130 -93 -245 -107 -278 -7 -16 -20 -47 -28 -68
l-15 -37 1290 0 1289 0 -2 927 -3 926 -25 5 c-37 7 -209 6 -340 -3 -63 -4
-142 -9 -175 -11 -139 -9 -511 -3 -640 10 -27 3 -77 8 -110 11 -33 3 -67 8
-75 10 -8 2 -30 7 -48 10 -117 20 -238 108 -288 212 -25 50 -27 66 -29 187 -1
73 3 175 11 226 7 53 9 102 4 115 -4 11 -33 40 -63 64 -31 23 -62 53 -71 66
-38 58 -26 125 41 229 24 38 46 82 48 97 4 33 -4 43 -84 102 -31 22 -60 45
-64 51 -16 21 2 112 37 188 19 42 40 94 47 116 14 47 12 50 -97 165 -44 46
-64 76 -64 93 0 42 35 105 117 211 43 55 89 115 103 133 14 18 30 38 35 44 58
64 235 326 235 349 0 5 -21 28 -47 50 -95 85 -193 204 -193 234 0 22 38 14 72
-15 86 -73 218 -119 266 -93 25 13 33 50 47 211 3 36 8 79 11 95 14 89 37 207
51 260 8 33 16 65 17 70 22 101 96 283 159 393 66 114 66 119 21 215 -35 74
-39 91 -41 172 -3 108 19 191 73 280 46 78 67 100 137 146 74 48 195 91 327
117 172 34 287 40 493 26 l109 -7 -3 64 c-3 91 -2 89 -76 86 -35 -1 -65 -3
-66 -3z"/>
</g>
</svg>
