<?xml version="1.0" standalone="no"?>
<!DOCTYPE svg PUBLIC "-//W3C//DTD SVG 20010904//EN"
 "http://www.w3.org/TR/2001/REC-SVG-20010904/DTD/svg10.dtd">
<svg version="1.0" xmlns="http://www.w3.org/2000/svg"
 width="2841.000000pt" height="1598.000000pt" viewBox="0 0 2841.000000 1598.000000"
 preserveAspectRatio="xMidYMid meet">

<g transform="translate(0.000000,1598.000000) scale(0.100000,-0.100000)"
fill="#ffffff" stroke="none">
<path d="M8710 15975 c0 -36 -140 -901 -425 -2615 -260 -1569 -348 -2122 -361
-2269 -15 -165 -20 -194 -34 -198 -20 -5 -26 -48 -60 -383 -24 -241 -26 -250
-45 -250 -8 0 -16 -14 -20 -32 -3 -18 -9 -54 -14 -80 -8 -43 -7 -48 11 -48 10
0 21 -7 24 -15 5 -13 -28 -717 -42 -899 l-6 -79 -79 6 -78 6 -7 -37 c-3 -20
-9 -53 -13 -72 l-7 -34 -54 2 c-104 5 -720 43 -2390 146 -921 58 -1736 107
-1810 111 -161 7 -231 1 -775 -70 -444 -59 -576 -85 -1071 -214 -521 -136
-888 -220 -1173 -267 l-281 -47 0 -133 0 -133 28 5 c129 24 538 90 542 87 2
-2 62 -590 132 -1306 l127 -1302 126 -895 c69 -492 152 -1127 185 -1410 42
-360 75 -597 110 -785 27 -148 92 -565 145 -925 195 -1333 265 -1819 265
-1830 0 -5 18 -10 40 -10 27 0 40 4 40 13 0 13 -152 1063 -295 2042 -41 281
-95 618 -120 750 -44 238 -173 1260 -162 1288 3 8 90 49 194 92 103 43 303
129 443 190 l255 113 158 17 c87 9 161 14 164 11 6 -6 47 -414 318 -3156 69
-696 128 -1286 131 -1312 l6 -48 40 0 41 0 -6 48 c-6 42 -122 1206 -366 3677
-44 440 -78 801 -76 804 2 2 480 46 1061 98 948 85 1058 93 1066 79 20 -36 96
-56 154 -40 16 4 19 12 16 33 -4 27 -1 29 40 34 23 4 111 7 193 9 146 2 150 1
153 -19 3 -18 9 -21 35 -17 30 4 357 34 371 34 3 0 6 -55 6 -122 0 -102 38
-707 45 -716 1 -1 31 4 66 11 59 12 64 15 61 38 -2 13 -28 148 -58 300 -30
152 -54 278 -54 281 0 3 28 11 63 17 105 20 97 10 97 116 l0 94 43 5 c56 8
244 26 267 26 15 0 19 -16 30 -97 7 -54 43 -261 81 -459 38 -199 69 -364 69
-367 0 -3 -13 -8 -30 -12 -21 -5 -30 -13 -30 -26 0 -11 -6 -21 -12 -24 -7 -2
-46 -14 -87 -25 -91 -27 -121 -55 -121 -114 0 -51 21 -83 67 -103 31 -13 43
-12 121 8 133 33 198 72 232 139 26 50 26 115 0 300 -11 79 -20 145 -20 147 0
1 -10 2 -22 0 -21 -2 -24 4 -37 83 -8 47 -31 182 -51 300 -21 118 -36 218 -33
223 2 4 15 7 28 7 36 0 55 10 55 31 0 13 10 20 33 24 191 34 1458 216 2157
310 14 2 52 5 84 7 l59 3 62 -220 c34 -121 61 -221 60 -223 -1 -1 -197 -63
-435 -137 -238 -74 -443 -141 -457 -150 -33 -22 -57 -76 -49 -110 12 -48 59
-85 106 -85 44 0 411 112 666 204 129 46 234 68 234 50 0 -3 43 -165 95 -360
52 -196 95 -357 95 -359 0 -1 -9 -5 -21 -8 -16 -4 -19 -11 -14 -26 5 -16 1
-22 -22 -27 -213 -54 -649 -150 -653 -144 -8 13 -105 -28 -144 -63 -71 -61
-53 -162 32 -188 35 -10 45 -8 108 19 123 54 760 230 776 214 10 -12 120 -423
114 -429 -6 -6 -463 -133 -479 -133 -4 0 -12 20 -19 45 -10 37 -16 45 -35 45
-31 0 -281 -35 -468 -66 -82 -13 -199 -29 -260 -34 -121 -12 -147 -23 -172
-74 -20 -43 -11 -79 28 -119 l30 -30 122 6 c67 3 221 21 342 40 121 20 248 39
283 43 l63 7 -3 31 -3 31 305 62 c168 35 310 61 315 59 10 -3 106 -439 105
-476 0 -8 40 -166 90 -350 49 -184 86 -338 82 -342 -4 -4 -106 -53 -227 -109
-121 -55 -609 -281 -1084 -501 -702 -324 -867 -397 -876 -386 -7 7 -97 123
-200 256 -103 134 -194 252 -203 262 -10 11 -64 82 -122 158 -58 77 -117 148
-132 159 -16 10 -28 26 -28 37 0 42 34 143 62 184 31 46 128 123 188 150 71
32 91 70 50 92 -54 29 -280 -131 -333 -236 -8 -16 -23 -63 -33 -105 l-18 -76
-151 -6 c-238 -8 -311 -27 -549 -144 -142 -70 -200 -94 -204 -85 -2 8 -60 126
-128 263 -68 138 -124 257 -124 264 0 8 19 24 43 36 23 12 43 23 45 24 1 1 -4
31 -13 66 -21 89 -19 169 7 263 23 85 28 92 175 228 35 32 56 62 67 94 22 65
21 81 -14 157 -40 90 -39 101 13 121 l42 16 23 94 c12 51 22 122 22 156 0 54
-2 61 -17 56 -10 -3 -58 -13 -106 -22 -49 -9 -90 -22 -91 -28 -59 -240 -58
-228 -25 -400 16 -83 27 -152 24 -154 -2 -3 -54 -15 -115 -27 -119 -24 -123
-26 -164 -105 -52 -99 -71 -185 -70 -325 0 -168 19 -238 152 -574 56 -140 100
-256 99 -257 -9 -8 -899 -286 -903 -282 -3 3 -49 113 -103 244 -95 232 -98
239 -126 239 -54 0 -52 -18 35 -230 45 -110 90 -221 100 -246 l19 -46 -158
-87 c-163 -90 -191 -115 -191 -171 0 -38 29 -82 62 -96 48 -20 98 -4 248 80
81 45 187 94 240 112 52 18 100 38 105 45 6 6 39 17 75 23 36 6 189 51 340 99
219 70 274 91 272 104 -1 9 2 19 8 23 5 3 83 26 172 51 104 29 202 64 274 98
141 67 263 96 439 103 l130 6 102 -134 102 -133 -85 -79 c-60 -57 -84 -86 -84
-103 0 -17 -6 -24 -19 -24 -19 0 -135 -89 -127 -97 2 -2 96 24 207 58 112 34
214 63 226 63 17 1 57 -44 183 -209 174 -226 186 -243 173 -255 -4 -4 -47 -23
-95 -41 -48 -19 -89 -40 -90 -48 -2 -9 -99 -43 -278 -97 -150 -46 -275 -82
-276 -81 -1 1 -36 114 -78 251 -42 137 -78 251 -80 253 -10 10 -67 -74 -81
-119 -49 -158 -10 -334 102 -458 41 -46 118 -98 129 -87 2 2 -1 18 -7 36 -7
19 -8 36 -3 41 7 7 813 257 974 302 50 14 50 15 34 54 -8 20 -13 38 -10 41 4
5 2049 951 2114 978 l33 14 119 -244 c65 -135 122 -245 125 -245 3 0 15 5 26
11 21 11 31 -6 99 -176 26 -63 27 -72 14 -86 -14 -15 -13 -23 12 -71 14 -29
28 -54 29 -56 2 -2 26 8 54 22 47 24 51 25 60 8 46 -88 160 -346 155 -353 -3
-5 -23 -18 -45 -29 -21 -11 -39 -23 -39 -26 0 -14 32 -64 40 -64 6 0 36 14 67
32 49 28 57 30 67 16 6 -9 54 -97 106 -197 l95 -181 52 0 c29 0 53 2 53 5 0 3
-39 82 -86 177 -66 133 -83 173 -72 180 241 159 1550 763 1732 800 45 9 57 7
119 -18 42 -17 86 -44 111 -69 58 -56 167 -265 210 -403 20 -61 44 -128 55
-149 38 -74 143 -151 243 -179 32 -9 62 -22 65 -28 4 -6 32 -78 63 -161 l55
-150 43 -3 c23 -2 42 0 42 5 0 4 -25 73 -55 153 -30 80 -55 148 -55 151 0 4
37 11 83 17 62 8 172 43 447 140 351 123 401 138 1287 373 l923 244 -6 35 c-4
19 -8 37 -10 39 -3 3 -417 -105 -922 -238 -875 -232 -934 -249 -1286 -373
-204 -71 -395 -134 -425 -139 -133 -21 -236 0 -340 70 -71 48 -86 73 -131 221
-17 58 -62 164 -98 235 -86 168 -149 235 -267 284 -71 30 -86 32 -140 26 -33
-3 -98 -22 -145 -42 -47 -19 -173 -71 -280 -113 -227 -91 -1082 -497 -1250
-594 l-115 -66 -135 272 c-75 150 -231 469 -347 708 l-212 435 -154 580 c-151
571 -153 580 -133 591 90 49 815 352 1316 549 314 124 387 150 396 139 6 -8
15 -14 20 -14 4 0 156 45 338 101 182 55 354 103 383 106 31 4 96 -2 159 -12
l106 -19 166 -114 c201 -137 178 -125 287 -156 l90 -25 200 13 200 13 633 204
632 204 -2 35 -3 35 203 53 c112 29 210 51 218 48 8 -3 14 -15 14 -27 0 -13 5
-19 13 -16 6 2 100 28 207 57 107 28 196 53 198 54 3 3 -29 209 -33 214 -2 2
-165 -40 -362 -93 -232 -62 -608 -177 -1068 -325 l-710 -229 -160 -9 c-145 -9
-166 -8 -221 9 -34 11 -72 27 -85 37 -13 10 -91 64 -174 120 l-150 102 -125
26 c-104 21 -142 25 -228 20 -91 -4 -130 -13 -370 -86 -793 -241 -1266 -413
-1920 -697 -133 -58 -244 -104 -246 -102 -5 5 -95 336 -285 1049 -244 916
-280 1035 -339 1137 -28 48 -48 91 -44 95 4 3 387 146 852 318 859 317 1019
382 1215 499 61 35 241 137 400 226 245 137 368 215 795 504 278 188 935 633
1460 988 l956 646 -21 132 c-11 74 -23 136 -26 140 -4 3 -355 -230 -780 -517
-587 -396 -775 -528 -777 -545 -3 -17 -71 -63 -295 -199 -229 -139 -604 -382
-637 -412 -3 -3 1 -7 7 -9 7 -3 23 -13 35 -23 20 -17 21 -20 8 -33 -8 -8 -74
-31 -146 -51 -130 -36 -134 -38 -300 -150 -93 -62 -286 -177 -428 -255 -142
-79 -299 -168 -349 -198 -175 -106 -298 -159 -807 -348 l-515 -191 0 -33 0
-34 -250 -58 c-161 -37 -296 -76 -380 -107 -71 -27 -131 -49 -132 -48 -1 0
-198 696 -438 1546 l-436 1545 527 3175 c290 1746 530 3178 533 3182 3 4 816
-141 1806 -322 2158 -395 2222 -404 3150 -446 l150 -6 2 129 1 130 -162 7
c-379 17 -640 37 -936 70 -285 33 -488 68 -2135 368 -1001 182 -1824 335
-1828 338 -4 4 8 111 28 239 19 127 35 241 35 251 0 19 -7 20 -130 20 -71 0
-130 -2 -130 -5z m-4475 -7055 c435 -27 826 -51 870 -53 44 -2 550 -33 1125
-70 575 -36 1109 -70 1187 -75 79 -4 144 -10 146 -13 2 -2 205 -717 451 -1589
431 -1528 449 -1588 496 -1670 27 -46 48 -85 47 -87 -1 -1 -40 -7 -87 -13 -47
-6 -177 -36 -290 -65 -259 -68 -242 -65 -250 -35 -5 22 -11 25 -40 22 -57 -5
-593 -82 -612 -88 -10 -3 -18 -14 -18 -24 0 -22 1 -22 -250 -55 -107 -14 -207
-28 -221 -31 -20 -4 -28 0 -31 14 -5 17 -10 18 -65 9 -51 -8 -59 -12 -59 -31
1 -20 -6 -22 -194 -38 -107 -9 -197 -13 -200 -8 -3 4 -61 2 -130 -6 -69 -7
-131 -13 -137 -14 -7 0 -13 -8 -13 -18 0 -17 -20 -20 -207 -35 -248 -20 -253
-21 -253 -4 0 10 -24 11 -131 1 -72 -7 -143 -17 -157 -22 -15 -6 -74 -13 -132
-16 -442 -25 -465 -29 -491 -79 -6 -12 -13 -23 -14 -24 -2 -4 -2118 -193
-2121 -190 -3 3 -594 4138 -594 4158 0 22 275 81 544 116 200 25 219 30 226
49 8 20 14 21 127 17 70 -2 169 2 243 11 164 20 271 16 1235 -44z m-2455 -167
c0 -5 133 -939 296 -2077 162 -1137 294 -2070 292 -2071 -2 -2 -77 -11 -168
-20 l-165 -17 -245 -108 c-319 -140 -640 -274 -644 -269 -2 2 -58 396 -124
874 -120 860 -123 884 -242 2110 -66 682 -122 1255 -123 1274 l-2 34 380 93
c209 51 454 113 545 138 170 46 200 51 200 39z"/>
<path d="M19036 15963 c-2 -10 -10 -65 -17 -123 -10 -93 -9 -144 15 -459 15
-194 26 -355 24 -356 -2 -2 -473 -49 -1048 -105 -575 -56 -1173 -114 -1330
-130 -241 -25 -435 -35 -1265 -66 -539 -20 -986 -38 -992 -40 -10 -2 -13 -37
-13 -129 l0 -125 51 0 c28 0 473 16 988 35 l936 35 605 60 c1391 137 2091 202
2097 196 3 -3 55 -304 114 -668 85 -518 127 -816 194 -1363 71 -576 152 -1352
142 -1361 -1 -1 -238 13 -527 31 -396 26 -536 31 -570 24 -25 -6 -102 -19
-171 -29 -173 -25 -184 -30 -804 -434 -220 -143 -895 -581 -1500 -973 -605
-393 -1105 -719 -1111 -726 -9 -9 -8 -47 3 -147 8 -74 16 -136 18 -138 3 -4
1055 676 2710 1751 554 360 611 393 712 407 43 6 109 17 146 24 60 12 127 9
589 -20 287 -19 523 -36 526 -39 3 -2 20 -175 37 -382 l33 -378 246 -1270
c297 -1528 225 -1172 702 -3460 216 -1039 392 -1890 390 -1892 -2 -2 -3643
-491 -4571 -614 -214 -28 -391 -52 -392 -53 -1 -1 39 -209 41 -213 2 -3 965
124 3071 406 1029 138 1877 251 1886 251 28 0 252 -1117 565 -2815 57 -314
109 -594 115 -623 l10 -52 130 0 c111 0 129 2 129 16 0 8 -36 212 -80 452
-298 1613 -381 2032 -911 4577 -366 1756 -637 3087 -810 3975 l-260 1335 -33
370 c-18 204 -30 373 -27 377 3 4 332 -4 731 -18 648 -21 818 -31 1614 -89
490 -36 891 -67 892 -68 1 -1 154 -796 339 -1767 202 -1057 343 -1777 353
-1794 24 -40 163 -118 250 -139 40 -10 110 -17 162 -17 153 0 2321 213 3245
319 785 90 866 101 928 126 l67 27 0 444 c0 471 2 455 -44 438 -14 -5 -16 -42
-16 -303 0 -272 -2 -298 -19 -326 -29 -47 -57 -72 -93 -84 -109 -35 -3838
-421 -4069 -421 -77 0 -160 22 -203 53 -13 10 -84 362 -341 1707 -179 932
-325 1705 -325 1718 0 21 4 22 83 22 45 0 415 9 822 20 407 11 1348 28 2090
39 743 11 1511 23 1708 26 l357 7 2 -749 c1 -411 2 -764 1 -783 0 -19 -4 -135
-8 -257 l-8 -223 31 0 32 0 0 1114 0 1115 -402 -5 c-222 -2 -437 -6 -479 -8
l-77 -4 -6 52 c-3 28 -51 557 -106 1176 -56 619 -151 1665 -213 2325 l-112
1200 -38 3 c-35 3 -37 2 -37 -26 0 -16 52 -584 115 -1263 129 -1381 317 -3461
313 -3464 -2 -1 -543 -10 -1203 -19 -660 -10 -1600 -28 -2090 -41 l-890 -23
-940 68 c-839 62 -1010 71 -1590 89 -357 12 -695 24 -751 27 l-101 6 -31 356
c-58 654 -188 1666 -312 2426 -60 374 -109 681 -107 682 1 2 1600 268 3552
591 l3548 588 -779 3 -779 2 -2783 -461 c-1531 -253 -2786 -458 -2789 -456 -2
3 -16 151 -30 329 -25 326 -25 393 4 556 l5 32 -130 0 c-116 0 -131 -2 -136
-17z"/>
<path d="M1 14840 c0 -393 1 -432 15 -407 27 49 54 178 53 251 0 39 -15 188
-34 331 l-33 260 -1 -435z"/>
<path d="M27395 5693 c-613 -76 -1022 -131 -1042 -140 -18 -8 -38 -29 -47 -48
-16 -32 -6 -126 209 -2072 l226 -2038 -21 -470 c-11 -258 -25 -558 -30 -665
-5 -107 -10 -210 -10 -227 l0 -33 110 0 110 0 0 28 c0 64 51 1148 54 1158 3 8
183 13 608 18 331 3 658 9 726 12 l122 7 0 110 0 110 -67 -6 c-116 -11 -1383
-21 -1383 -11 -1 5 -99 892 -218 1971 l-218 1963 31 5 c27 4 1512 187 1753
216 l102 12 0 114 c0 62 -1 113 -2 112 -2 0 -457 -57 -1013 -126z"/>
<path d="M5786 3743 c3 -16 16 -80 29 -143 l24 -115 -5 95 c-8 160 -14 190
-35 190 -15 0 -17 -5 -13 -27z"/>
<path d="M7671 194 c-1 -6 6 -31 14 -55 20 -54 14 -60 -87 -89 -119 -35 -105
-50 43 -50 116 0 120 1 114 20 -12 37 -84 185 -84 174z"/>
</g>
</svg>
