<?xml version="1.0" standalone="no"?>
<!DOCTYPE svg PUBLIC "-//W3C//DTD SVG 20010904//EN"
 "http://www.w3.org/TR/2001/REC-SVG-20010904/DTD/svg10.dtd">
<svg version="1.0" xmlns="http://www.w3.org/2000/svg"
 width="2841.000000pt" height="1598.000000pt" viewBox="0 0 2841.000000 1598.000000"
 preserveAspectRatio="xMidYMid meet">

<g transform="translate(0.000000,1598.000000) scale(0.100000,-0.100000)"
fill="#ffffff" stroke="none">
<path d="M3005 15968 c-3 -10 -1149 -3741 -1191 -3882 -5 -14 -12 -17 -33 -13
-22 5 -1673 510 -1753 537 l-28 9 0 -117 0 -117 828 -254 c455 -139 1265 -390
1801 -557 535 -167 975 -304 978 -304 3 0 -296 -337 -378 -425 -22 -23 -40
-71 -78 -199 -28 -93 -53 -171 -55 -173 -3 -3 -38 5 -79 17 -41 12 -79 21 -84
19 -6 -2 -222 -245 -480 -540 l-471 -536 -57 -204 c-32 -112 -62 -208 -66
-213 -5 -5 -54 5 -118 24 l-109 33 -165 -145 -165 -146 -424 139 c-233 77
-525 172 -650 213 l-228 74 0 -117 0 -116 551 -180 c303 -99 552 -182 554
-186 3 -3 -118 -122 -268 -264 -150 -142 -278 -271 -285 -287 -6 -15 -19 -28
-28 -28 -9 0 -81 -62 -161 -137 -200 -192 -300 -280 -334 -295 l-29 -13 0
-119 c0 -108 1 -118 18 -111 9 4 40 16 69 26 28 11 81 41 116 67 36 26 321
291 634 589 313 297 676 635 808 751 l238 209 344 -138 c294 -117 370 -144
519 -179 173 -42 174 -42 174 -70 0 -24 8 -30 66 -55 40 -17 104 -59 167 -111
l102 -83 580 -948 c319 -521 592 -960 607 -975 15 -16 37 -28 52 -28 24 0 35
-18 126 -200 55 -110 100 -204 100 -210 0 -5 -95 -91 -211 -190 -224 -191
-416 -330 -589 -425 -663 -363 -770 -466 -975 -940 -187 -433 -302 -622 -593
-974 -121 -146 -260 -315 -310 -376 -49 -60 -93 -109 -98 -108 -5 1 -401 228
-880 506 -479 277 -914 530 -967 560 l-97 56 0 -152 1 -152 890 -515 c490
-283 892 -517 894 -520 2 -3 -79 -117 -180 -254 -239 -325 -257 -362 -437
-891 -189 -558 -184 -511 -146 -1208 l22 -417 128 0 128 0 0 48 c0 26 -9 202
-20 392 -23 397 -24 532 -9 633 15 93 276 862 330 969 23 45 126 197 231 340
l189 258 42 -24 c23 -13 398 -222 832 -464 435 -242 889 -497 1010 -567 121
-71 517 -300 880 -510 562 -325 1255 -746 1656 -1006 l106 -69 222 2 222 3
-208 146 c-304 213 -1120 718 -1728 1070 -291 168 -712 412 -935 541 -223 129
-748 425 -1167 658 -420 233 -763 427 -763 431 0 8 176 226 423 524 135 162
186 233 270 375 147 246 183 317 286 555 104 237 176 365 253 444 79 81 229
184 453 311 110 62 229 130 265 151 139 80 344 232 540 400 272 232 443 369
521 416 72 44 298 148 368 170 25 8 102 19 171 23 175 12 268 -4 510 -85 585
-197 1429 -362 2180 -425 135 -12 344 -32 465 -46 121 -14 286 -28 367 -32 81
-4 149 -10 151 -12 3 -3 -47 -401 -109 -885 -103 -799 -120 -958 -189 -1731
-70 -793 -77 -898 -104 -1545 -22 -502 -28 -751 -24 -900 5 -183 -5 -412 -23
-526 l-5 -33 110 0 c107 0 111 1 115 23 16 77 25 294 20 502 -4 183 2 404 25
930 27 618 38 773 100 1485 63 708 84 900 191 1750 69 547 127 969 136 988 7
18 14 56 14 84 0 27 155 872 344 1877 l344 1826 91 985 c51 542 94 1011 98
1042 7 69 1 96 -28 127 l-22 24 43 295 c30 197 49 299 58 306 70 54 58 11 200
716 104 515 572 2982 572 3014 0 3 -50 5 -112 4 l-112 -3 -232 -1235 c-127
-679 -284 -1494 -348 -1811 -74 -366 -115 -586 -111 -602 4 -15 17 -37 30 -49
l22 -23 -44 -295 c-40 -260 -47 -297 -66 -312 -12 -10 -29 -24 -37 -32 -13
-11 -66 -4 -364 48 l-349 61 -21 33 c-13 19 -37 38 -61 47 -48 18 -1419 272
-1700 315 -252 39 -412 50 -587 43 l-138 -6 0 54 c0 30 7 232 15 449 l16 395
205 1440 c112 792 207 1450 209 1463 5 22 4 22 -107 22 l-113 0 -207 -1457
-208 -1458 -16 -460 c-9 -253 -19 -463 -23 -466 -5 -5 -2132 -487 -2867 -650
l-231 -52 -954 298 c-525 163 -958 301 -963 305 -5 5 251 856 593 1967 330
1078 601 1962 601 1966 0 13 -80 7 -85 -5z m4805 -4064 c124 -19 552 -95 951
-169 400 -74 743 -135 764 -135 37 0 72 14 90 36 8 9 87 -2 360 -50 l350 -62
-3 -39 c-4 -63 -47 -535 -118 -1290 l-65 -700 -330 -1750 c-181 -962 -335
-1776 -341 -1808 l-11 -57 -126 6 c-69 3 -223 17 -341 30 -118 14 -341 36
-495 49 -790 69 -1566 219 -2150 415 -281 94 -393 113 -613 100 -192 -11 -247
-26 -452 -120 -178 -82 -274 -139 -380 -225 -41 -33 -83 -67 -93 -74 -16 -12
-25 3 -113 182 -78 162 -93 200 -85 216 34 62 46 40 -578 1059 -325 529 -596
970 -603 981 -25 36 -234 199 -294 229 -34 17 -288 122 -565 232 -277 111
-507 205 -511 208 -9 9 1019 1177 1035 1176 41 -5 1007 -373 1195 -456 339
-149 579 -226 882 -283 201 -37 1561 -314 1567 -319 0 0 -17 -158 -40 -351
-24 -205 -38 -362 -33 -378 19 -79 119 -106 176 -48 16 16 31 39 34 52 3 13
26 200 51 414 39 340 53 527 110 1455 35 586 69 1155 75 1265 6 110 13 210 16
222 4 20 11 23 87 26 174 9 370 -4 597 -39z m-914 -116 c-17 -317 -138 -2273
-140 -2275 -2 -2 -295 57 -652 131 -357 74 -750 153 -874 176 -289 53 -527
130 -885 285 -143 62 -448 181 -677 266 -230 84 -418 156 -418 159 0 11 611
685 628 692 9 4 260 62 557 128 413 92 2442 552 2464 559 2 0 1 -54 -3 -121z"/>
<path d="M12360 15968 c0 -7 -101 -708 -225 -1557 l-226 -1544 -344 -1464
c-190 -804 -345 -1473 -345 -1487 0 -13 11 -39 24 -59 l25 -36 -264 -1368
c-318 -1645 -283 -1473 -301 -1473 -24 0 -64 -31 -79 -61 -18 -34 -559 -4759
-551 -4804 4 -17 -35 -323 -84 -680 -97 -700 -103 -750 -129 -1163 l-17 -273
111 3 110 3 22 340 c19 300 33 418 113 995 50 360 92 660 94 666 3 7 92 -4
273 -34 l268 -44 195 17 c227 19 240 22 240 44 0 14 49 31 262 90 241 66 263
71 275 55 11 -15 139 22 1425 411 777 235 1429 433 1450 440 43 14 154 108
174 147 18 35 18 195 -1 348 l-14 115 -696 1745 c-382 960 -704 1766 -714
1792 l-19 47 114 55 c63 30 114 59 114 64 0 5 -14 42 -30 83 -17 40 -29 79
-28 87 2 9 491 212 513 212 1 0 12 -28 25 -62 12 -35 26 -67 30 -72 5 -4 264
114 577 264 312 150 621 297 685 328 114 53 116 55 107 80 -7 18 -6 29 3 37 7
7 123 49 258 95 158 53 305 111 413 162 154 73 169 79 181 63 12 -16 19 -15
114 16 91 30 101 35 96 54 -4 11 -7 24 -8 29 0 5 771 306 1714 667 943 362
1920 737 2170 833 367 141 457 172 465 161 6 -7 15 -21 20 -30 9 -14 17 -13
82 9 l72 24 82 -245 c83 -250 85 -262 42 -263 -21 0 -15 -19 26 -95 28 -51 76
-186 161 -461 240 -767 511 -1630 536 -1704 13 -41 78 -249 144 -461 66 -212
138 -432 160 -488 22 -56 40 -114 40 -128 0 -14 29 -119 65 -233 68 -219 71
-230 55 -230 -6 0 -23 -9 -38 -19 -22 -16 -656 -261 -675 -261 -3 0 -11 16
-17 36 -7 19 -17 33 -24 31 -6 -2 -227 -66 -490 -141 -264 -75 -487 -141 -497
-147 -24 -12 -49 -61 -49 -94 0 -34 25 -82 49 -95 11 -5 37 -10 58 -10 21 0
305 76 631 169 517 148 626 183 853 272 143 56 262 100 264 98 13 -14 214
-563 208 -569 -6 -5 -424 -165 -571 -218 -7 -2 -19 12 -28 34 -9 22 -17 40
-19 42 -5 5 -637 -188 -668 -205 -16 -8 -35 -30 -44 -51 -33 -79 27 -159 112
-148 58 8 971 287 1096 336 148 57 141 62 206 -141 28 -90 88 -254 132 -364
81 -198 90 -232 71 -251 -7 -7 -5 -25 4 -55 52 -157 616 -1968 616 -1976 0 -5
-222 -96 -493 -201 -407 -157 -618 -247 -1216 -517 -399 -180 -893 -411 -1100
-514 -330 -165 -406 -199 -620 -275 -134 -48 -245 -86 -246 -84 -2 2 -27 62
-55 133 -29 72 -195 483 -370 915 -305 752 -328 805 -550 1255 -134 273 -305
640 -407 875 -277 640 -530 1202 -689 1531 -141 292 -178 382 -456 1112 -33
87 -58 160 -55 163 2 2 229 74 503 158 274 85 548 173 608 195 75 28 162 51
284 73 159 28 180 30 234 19 73 -15 118 2 143 55 49 104 -51 182 -219 171
-133 -8 -393 -63 -512 -108 -107 -40 -1096 -349 -1118 -349 -6 0 -148 360
-315 800 -168 440 -306 798 -308 797 -1 -2 22 -77 52 -168 31 -90 54 -173 53
-183 -2 -15 -23 -26 -82 -46 -44 -14 -81 -31 -83 -37 -4 -10 104 -302 116
-315 3 -4 42 4 86 17 44 14 85 25 91 25 12 0 155 -452 154 -491 0 -24 -7 -28
-67 -46 -59 -16 -68 -22 -65 -40 3 -18 -6 -24 -55 -38 -32 -10 -103 -21 -158
-25 -55 -5 -120 -15 -144 -24 -60 -22 -71 -20 -77 14 -8 38 -18 45 -79 59 -37
9 -59 9 -79 2 -41 -16 -53 -13 -60 13 -5 20 -16 25 -92 40 -105 21 -144 16
-178 -25 -55 -65 -20 -155 68 -178 41 -10 53 -8 142 24 53 19 100 35 105 35 4
0 18 -27 30 -60 12 -33 26 -63 32 -67 26 -16 231 -52 296 -53 64 0 103 9 269
61 107 33 196 58 199 56 10 -11 143 -450 138 -456 -4 -3 -27 -13 -53 -22 -29
-10 -46 -22 -44 -30 2 -8 78 -210 168 -449 130 -342 194 -493 296 -705 72
-148 189 -398 260 -555 70 -157 132 -284 138 -282 35 8 3 72 336 -682 107
-241 194 -448 194 -460 0 -12 -5 -27 -11 -33 -17 -17 25 -93 48 -87 15 4 38
-39 131 -242 61 -135 112 -256 112 -268 0 -11 35 -94 77 -184 64 -133 81 -162
97 -160 16 3 32 -24 90 -148 39 -83 115 -234 169 -336 53 -102 97 -188 97
-191 0 -3 -17 -16 -37 -28 -21 -12 -39 -23 -41 -24 -3 -2 57 -157 63 -163 1
-1 26 7 55 18 29 11 54 19 56 17 5 -5 74 -197 74 -207 0 -4 -22 -16 -50 -25
l-49 -16 20 -52 c12 -29 23 -58 26 -65 3 -7 11 -11 17 -9 6 3 30 13 54 22 25
10 47 14 52 9 13 -14 180 -436 180 -456 0 -11 -17 -25 -50 -39 -27 -12 -50
-23 -50 -24 0 -1 7 -19 16 -40 8 -21 12 -41 7 -44 -4 -4 -64 -24 -133 -45
-277 -83 -839 -290 -1154 -426 -179 -76 -338 -146 -353 -154 -26 -14 0 -15
295 -16 l323 0 72 31 c119 51 811 293 970 340 116 33 150 40 156 30 5 -7 41
-100 81 -207 l72 -194 44 0 43 0 -28 78 c-16 42 -52 138 -80 213 -28 74 -51
140 -51 145 0 5 121 51 268 103 242 85 299 110 609 265 189 94 343 176 343
181 1 15 367 184 377 174 5 -5 107 38 232 96 123 58 230 105 238 105 10 0 12
10 8 38 l-6 37 512 230 c281 127 520 233 531 237 16 6 22 1 35 -30 8 -20 16
-38 18 -40 1 -1 137 49 301 113 164 63 302 114 306 113 3 -2 75 -77 158 -168
109 -119 186 -216 278 -349 70 -102 131 -191 135 -198 12 -20 -7 -25 -459
-133 l-411 -99 -197 -90 -196 -89 -18 33 -17 33 -84 -28 c-86 -28 -116 -50
-127 -96 -13 -53 26 -116 81 -130 51 -13 321 71 493 152 196 94 187 91 202 54
7 -16 13 -30 14 -30 20 0 770 185 807 200 29 11 54 19 54 17 72 -101 344 -493
534 -769 l253 -368 160 0 159 0 -32 48 c-40 58 -470 679 -784 1132 -128 184
-289 418 -358 519 -83 121 -168 229 -249 318 -68 75 -124 139 -126 143 -6 16
524 212 707 261 l105 28 139 -49 139 -50 987 75 986 76 655 94 c360 53 665 98
678 100 18 5 22 12 22 46 0 39 -1 40 -27 35 -16 -3 -320 -49 -678 -101 l-650
-94 -977 -76 -977 -75 -76 27 c-44 16 -70 30 -63 34 7 4 114 21 238 38 398 56
1208 129 2171 196 514 35 958 67 987 71 l52 5 0 130 0 130 -57 -6 c-49 -5
-969 -69 -1113 -77 l-45 -3 -57 225 c-32 124 -60 237 -63 252 -6 25 -4 27 42
34 68 9 162 50 201 87 51 49 75 127 68 215 -18 198 -79 455 -202 855 -66 213
-69 219 -96 215 -47 -7 -46 -27 21 -245 103 -337 146 -507 176 -687 31 -185
28 -228 -16 -285 -42 -53 -218 -103 -233 -66 -10 26 -70 48 -109 41 -33 -6
-87 -53 -87 -76 0 -15 -84 -16 -141 -2 -67 16 -142 70 -182 130 -56 84 -143
322 -198 543 -31 129 -48 214 -42 218 31 20 42 90 22 135 -12 25 -63 56 -92
56 -25 0 -324 -79 -585 -156 -287 -83 -506 -129 -699 -146 -131 -11 -133 -11
-133 -36 0 -23 -2 -24 -47 -18 -161 19 -245 17 -499 -9 -241 -25 -282 -32
-593 -106 -184 -44 -335 -78 -336 -77 -2 2 -51 158 -110 348 -59 190 -307 984
-551 1764 -245 780 -443 1420 -442 1421 2 1 185 67 407 148 222 80 412 154
422 163 11 10 24 34 30 54 23 75 -48 151 -124 134 -18 -3 -205 -69 -415 -146
-211 -77 -386 -137 -389 -135 -13 14 -324 1030 -317 1036 5 5 219 79 475 165
257 87 480 166 497 176 20 12 35 33 42 58 24 78 -39 151 -119 138 -20 -3 -241
-75 -491 -161 -250 -85 -461 -156 -469 -158 -10 -1 -38 76 -101 278 -48 154
-85 283 -81 286 3 3 827 267 1831 586 l1825 581 250 32 c194 25 263 38 310 57
153 64 371 176 452 231 98 68 138 119 216 277 55 112 80 194 117 388 33 170
135 898 180 1287 40 337 60 445 107 555 49 115 125 256 173 320 69 93 109 112
763 360 l607 230 0 118 c0 118 0 118 -22 111 -13 -4 -311 -116 -663 -250 -585
-223 -647 -249 -724 -301 -100 -68 -146 -127 -243 -306 -137 -252 -164 -352
-213 -777 -40 -349 -142 -1087 -176 -1269 -43 -236 -88 -364 -167 -483 -36
-56 -165 -137 -353 -225 l-162 -75 -211 -28 c-116 -15 -212 -26 -214 -25 -5 4
556 2967 593 3130 24 108 36 196 44 315 23 339 25 301 -57 923 l-77 577 -41 0
c-37 0 -41 -2 -37 -22 2 -13 37 -271 78 -574 l74 -551 -9 -188 c-13 -256 -16
-287 -56 -465 -36 -164 -594 -3111 -594 -3140 0 -10 -13 -21 -36 -28 l-36 -11
6 32 c12 65 156 1247 156 1281 0 76 -85 126 -156 92 -61 -28 -61 -44 -15 -238
23 -95 41 -178 41 -184 0 -7 -31 -20 -70 -29 -51 -13 -70 -22 -70 -34 0 -9 19
-94 42 -189 48 -194 50 -182 -36 -201 l-53 -12 -32 -267 c-18 -147 -35 -279
-38 -295 -5 -26 -15 -30 -185 -85 -141 -45 -182 -61 -188 -77 -7 -17 -46 -30
-246 -79 -215 -53 -1436 -434 -2419 -755 -279 -91 -355 -114 -361 -109 -2 2
-90 164 -195 359 -105 195 -203 370 -218 389 -15 19 -107 217 -205 440 -166
377 -220 483 -761 1515 -958 1826 -1276 2437 -1273 2441 4 3 472 132 2371 651
l1198 328 -411 3 c-410 2 -410 2 -498 -23 -358 -100 -2656 -725 -2658 -722 -2
2 18 80 45 173 42 145 52 195 65 340 9 93 19 184 22 202 l6 32 -111 0 c-80 0
-113 -3 -116 -12 -2 -7 -11 -89 -20 -183 -14 -157 -20 -187 -83 -400 l-67
-230 -1020 -332 c-561 -184 -1310 -428 -1663 -544 -354 -116 -646 -208 -649
-206 -3 3 69 433 159 956 l164 951 -112 0 -111 0 -6 -27 c-3 -16 -81 -464
-172 -998 -92 -533 -168 -970 -169 -971 -3 -2 -2835 -974 -2838 -974 -3 0 15
134 39 298 24 163 70 475 102 693 l57 397 -79 16 c-44 9 -82 17 -84 19 -3 4
144 757 149 762 2 2 29 -2 61 -7 32 -6 61 -8 63 -5 3 3 30 173 60 379 30 205
56 383 59 396 5 22 5 22 -110 22 -85 0 -115 -3 -115 -12z m6592 -1689 c257
-491 334 -647 325 -655 -44 -39 -659 -360 -1001 -522 -249 -118 -435 -212
-472 -239 -47 -35 -72 -63 -109 -126 -66 -110 -74 -138 -76 -264 l-3 -108 46
-105 c91 -208 152 -339 264 -561 119 -237 128 -249 194 -249 61 0 110 46 110
104 0 14 -44 115 -99 224 -95 190 -209 436 -266 572 -39 95 -36 173 10 256 20
36 50 72 73 87 21 15 219 113 440 217 238 113 524 257 702 356 166 91 303 164
306 162 2 -3 199 -376 437 -829 335 -638 464 -873 570 -1040 75 -119 137 -224
137 -232 0 -9 -6 -20 -14 -24 -22 -12 60 -196 83 -188 13 4 40 -45 125 -225
100 -212 115 -260 86 -260 -6 0 -9 -8 -5 -18 5 -16 -14 -26 -132 -72 -76 -29
-176 -67 -223 -86 -117 -45 -1081 -415 -2710 -1039 l-1375 -527 -1010 -483
c-555 -266 -1264 -605 -1575 -755 l-565 -271 -1205 -189 c-663 -103 -1207
-187 -1208 -185 -2 2 31 183 74 402 65 337 78 419 83 538 6 136 7 140 29 143
12 2 22 6 22 10 0 12 330 1716 333 1717 1 0 14 6 30 13 15 6 34 26 42 44 16
36 614 2563 618 2613 1 17 6 35 9 41 4 6 19 61 33 121 l26 110 1532 526 c1644
565 2318 790 2328 779 4 -4 102 -315 218 -692 117 -377 217 -698 223 -713 28
-71 125 -92 179 -38 23 23 29 38 29 72 0 26 -79 298 -217 741 -128 414 -213
702 -207 707 12 12 2396 790 2409 787 6 -1 162 -292 347 -647z m-5983 -7150
c7 -22 18 -42 25 -45 7 -3 55 2 106 11 51 9 96 12 100 8 4 -4 327 -811 718
-1793 700 -1758 711 -1786 721 -1882 17 -152 15 -191 -11 -215 -27 -24 -2960
-914 -3253 -987 -130 -32 -226 -49 -345 -61 l-165 -17 -255 42 c-140 23 -258
45 -261 48 -4 4 109 1019 250 2256 l257 2250 839 132 840 132 195 80 c107 44
202 81 211 81 10 1 20 -13 28 -40z m13277 -2954 c57 -230 138 -452 204 -554
70 -109 225 -186 346 -174 l53 6 10 -39 c32 -119 109 -450 105 -453 -2 -2
-144 -14 -316 -27 -411 -30 -1269 -116 -1528 -153 -313 -44 -623 -134 -1085
-314 -128 -51 -192 -71 -196 -63 -4 6 -106 328 -227 716 -121 388 -223 712
-227 721 -5 13 18 21 132 48 223 53 212 49 206 70 -3 13 1 21 14 24 55 16 925
158 938 153 8 -3 15 -17 15 -31 0 -21 5 -25 28 -25 69 1 232 22 385 50 92 17
171 28 176 26 16 -10 123 15 351 81 345 101 534 152 550 150 10 -2 29 -63 66
-212z"/>
<path d="M15375 568 c-36 -19 -55 -52 -55 -94 0 -22 18 -134 40 -248 22 -114
40 -212 40 -217 0 -5 51 -9 116 -9 105 0 115 2 110 18 -3 9 -26 125 -51 256
-26 132 -51 248 -56 258 -22 40 -101 60 -144 36z"/>
</g>
</svg>
